<svg width="262" height="71" viewBox="0 0 262 71" fill="none" xmlns="http://www.w3.org/2000/svg">
<path d="M31.9268 0.665039C39.9267 5.90274 49.0181 8.64648 58.1816 8.64648H60V10.7246C60 37.3288 52.2901 52.2105 45.8174 59.9424C38.7659 68.585 31.6422 70.7491 31.3457 70.834L30.9092 71L30.4727 70.917C30.1818 70.8339 22.6182 68.6723 15.0547 60.1094C8.21837 52.2944 0 37.3288 0 10.7246V8.64648H3.63672C12.8002 8.64641 21.8908 5.90266 29.8906 0.665039L30.9092 0L31.9268 0.665039ZM37.1416 12.0625C37.142 12.0997 37.1878 12.2696 37.2441 12.4395C37.3523 12.7603 37.6981 13.9459 37.832 14.4375C38.2286 15.9121 38.2642 16.0469 38.46 16.916C38.9648 19.1308 39.2534 20.9164 39.3564 22.4844C39.408 23.3331 39.3872 23.7629 39.2842 23.8457C38.9884 24.0783 35.6576 24.0318 34.2412 23.7783C33.69 23.6748 33.5712 23.7162 33.3857 24.0576C33.2518 24.3112 32.4116 25.1656 32.1592 25.3105L32 25.4033L31.7891 25.0664C31.6346 24.8129 31.5048 24.6787 31.2627 24.5234C30.9743 24.3373 30.6292 24.213 30.5674 24.2803C30.553 24.2926 30.661 24.5454 30.8047 24.834C31.0726 25.3877 31.134 25.6879 30.9795 25.75C30.8972 25.7807 30.8144 25.6875 30.624 25.3516C30.4798 25.0981 30.3105 25.0829 30.2178 25.3105C30.12 25.5431 29.9395 25.7652 29.8467 25.7656C29.6973 25.7656 29.527 25.5995 29.4395 25.377C29.3107 25.0358 29.1817 25.0618 28.9346 25.46C28.7337 25.7911 28.6459 25.8225 28.5635 25.5898C28.5223 25.4708 28.5585 25.372 28.7852 24.9062C28.9345 24.6113 29.0527 24.3423 29.0527 24.3164C29.0526 24.2337 28.878 24.2547 28.6309 24.3633C28.3269 24.4978 27.9915 24.7977 27.7803 25.1289L27.6055 25.4082L27.3945 25.2529C26.9103 24.8959 26.4613 24.4456 26.2861 24.1299C26.0288 23.6852 25.9721 23.6698 25.21 23.7939C23.618 24.0579 20.6197 24.0834 20.3105 23.835C20.2281 23.7728 20.2177 22.5105 20.2949 21.9102C20.3258 21.6825 20.3724 21.3097 20.4033 21.082C20.5166 20.1559 20.7585 18.7332 20.9131 18.0293C20.9388 17.9154 20.9956 17.6458 21.042 17.4336C21.0884 17.2214 21.1451 16.9626 21.1709 16.8643C21.1967 16.7657 21.2792 16.4245 21.3564 16.1143C21.6604 14.8619 21.9385 13.8625 22.2939 12.7344C22.4072 12.3725 22.4586 12.1347 22.4277 12.1035C22.3402 12.0155 21.4846 13.5421 20.8818 14.8721C19.7639 17.325 18.677 20.6736 18.0742 23.5146C18.0434 23.6542 17.9974 23.8554 17.9717 23.959C17.946 24.0622 17.9249 24.1916 17.9248 24.2539C17.9248 24.3626 18.2596 24.6737 18.8262 25.0928C18.9958 25.2167 19.1451 25.3305 19.1611 25.3516C19.1766 25.3671 19.2904 25.4606 19.4141 25.5537L19.6357 25.7295L19.9395 25.5635C20.3258 25.3513 20.6249 25.3099 23.7725 25.0615C25.0088 24.9632 25.2257 24.9843 25.5605 25.2275C26.0241 25.5692 26.5441 26.3352 26.4102 26.4697C26.3213 26.562 25.3587 26.1373 24.6895 25.7236C24.128 25.3667 23.6381 25.3828 22.7676 25.7812C22.6131 25.8485 22.3457 25.9567 22.1758 26.0137C21.8667 26.1171 20.4553 26.5154 19.7441 26.6914C19.636 26.7224 19.3524 26.8006 19.1104 26.873C17.7297 27.2871 16.9561 27.4736 16.6367 27.4736C16.1219 27.4736 16.0447 27.3178 16.0859 26.3711C16.1478 25.1032 16.2511 23.9176 16.3799 22.9551C16.4056 22.7378 16.4564 22.3659 16.4873 22.1279C16.5594 21.5587 16.6836 20.7663 16.7402 20.5127C16.9257 19.69 17.0338 19.2963 17.209 18.7529C17.4046 18.1479 17.6311 17.5172 17.7188 17.3047C17.7445 17.2478 17.8122 17.0614 17.874 16.8906C18.0028 16.5335 18.8733 14.3286 18.9814 14.0957C19.1155 13.8004 19.5838 12.6465 19.625 12.5068C19.7022 12.2483 19.5372 12.4034 19.1201 12.9775C17.518 15.1665 16.1688 17.7957 15.6123 19.7881C15.535 20.0727 15.4011 20.5391 15.3496 20.6943C15.329 20.7669 15.2819 20.9165 15.251 21.0303C15.2201 21.144 15.1434 21.4336 15.0713 21.6768C15.0043 21.9199 14.8599 22.4532 14.7568 22.8672C14.5044 23.8453 14.3235 24.5545 14.2617 24.7822C14.1535 25.2067 13.8556 26.5007 13.7783 26.9043C13.732 27.1474 13.6693 27.3648 13.6436 27.3906C13.5512 27.4889 13.6027 27.6494 13.8135 27.9336C14.1329 28.3579 14.9065 29.1134 15.2568 29.3359C15.5094 29.5015 16.0965 29.75 16.2305 29.75C16.2526 29.7487 16.4215 29.6358 16.6006 29.4971C16.9664 29.2176 17.3278 29.021 18.0078 28.7363C18.4611 28.5501 18.7393 28.4509 19.8057 28.1094C20.8873 27.7627 21.1967 27.6703 21.377 27.6289C21.4749 27.603 21.779 27.5249 22.0469 27.4473C22.8866 27.2145 23.9685 27.22 25.0605 27.458C25.5497 27.5666 25.8487 27.6643 26.0908 27.7988C26.369 27.9593 26.3843 28.0739 26.1318 28.1826C25.8684 28.2964 24.2926 28.3421 23.7725 28.249C23.1906 28.1456 23.0308 28.1308 22.8506 28.167C22.593 28.2187 22.2375 28.4775 22.1035 28.7207C21.851 29.1658 20.3462 30.5521 18.5381 32.001C18.0183 32.4197 17.5448 32.7975 17.4873 32.8447C17.3843 32.9327 16.132 33.8752 15.7354 34.165C15.215 34.548 14.3545 35.1171 13.8857 35.3965C13.1906 35.8102 13.0876 35.8099 12.4697 35.4014L12.1914 35.2148L12.0986 35.334C11.9853 35.4737 11.9694 35.9188 12.0518 36.7881C12.0775 37.0882 12.1343 37.7405 12.1807 38.2373C12.2219 38.7339 12.2786 39.3028 12.3096 39.5049C12.3353 39.7015 12.3822 40.0743 12.4131 40.333C12.7325 42.9516 13.2418 45.3118 13.8291 46.8281C13.9527 47.1541 14.0923 47.5367 14.1387 47.6816C14.185 47.8214 14.2418 47.987 14.2676 48.0439C14.2882 48.1009 14.3752 48.3232 14.4473 48.5352C15.22 50.6828 16.2718 52.9602 17.0137 54.1143C17.3326 54.6102 17.4406 54.735 17.4922 54.6787C17.5179 54.6528 17.4407 54.4142 17.0234 53.2705C16.9204 52.9859 16.7558 52.51 16.6631 52.21C16.5704 51.9099 16.4203 51.4548 16.3379 51.2012C15.9258 49.9386 15.3803 47.8269 15.1484 46.6211C15.1175 46.4658 15.071 46.2169 15.04 46.0771C14.906 45.409 14.5662 42.7237 14.4014 41.0059C14.2314 39.2568 14.2158 39.0286 14.2158 38.625C14.2211 37.911 14.4375 37.2589 14.8135 36.8398C14.9994 36.6325 16.0602 35.7633 17.1777 34.8994C18.0071 34.2578 19.0219 33.4607 19.5732 33.0156C19.872 32.7724 20.1403 32.5601 20.166 32.5342C20.197 32.5134 20.3566 32.3846 20.5264 32.2451C20.6964 32.1106 20.8976 31.9544 20.9697 31.8975C21.1762 31.7418 22.2944 30.7753 22.624 30.4648C23.072 30.051 23.0769 30.0452 23.4629 29.9004C24.3078 29.5847 24.5763 29.5276 25.2666 29.5225C25.6528 29.5173 25.7297 29.5333 25.7451 29.6006C25.7545 29.653 25.5392 29.9012 25.2051 30.2266C23.9224 31.4736 23.52 31.7631 22.835 31.9287C22.4126 32.0322 22.2729 32.1202 22.1699 32.3633C22.0772 32.5961 22.0207 38.325 22.0928 40.4883C22.1804 43.0137 22.2728 44.0852 22.5098 45.4824C22.7055 46.6054 23.0462 48.546 23.0771 48.7168C23.211 49.41 23.2985 49.8395 23.3604 50.0879C23.4016 50.2431 23.4841 50.606 23.5459 50.8906C23.7777 51.9566 24.1176 53.1213 24.5967 54.4873C24.8336 55.1599 25.0035 55.5637 25.5547 56.7383C25.8844 57.4421 26.8428 58.9946 27.085 59.2119C27.2395 59.3516 27.255 59.2527 27.1211 58.9629C27.0541 58.818 26.9461 58.5751 26.874 58.4199C26.6525 57.949 26.0904 56.3655 25.8174 55.4443C25.6937 55.0406 25.3587 53.7466 25.2969 53.4258C25.2711 53.3116 25.2043 52.9855 25.1426 52.7012C25.0808 52.4166 25.014 52.0645 24.9883 51.9248C24.9574 51.7799 24.9105 51.5369 24.8848 51.3818C24.7199 50.5227 24.5193 48.701 24.4111 47.1641C24.2669 45.0629 24.2725 39.5721 24.4219 36.5293C24.4888 35.1533 24.488 35.2047 24.4365 34.5117C24.4108 34.1498 24.3703 33.9164 24.3086 33.8076C24.221 33.642 24.2211 33.6419 24.4014 33.3418C24.5663 33.0623 24.9113 32.5553 24.9834 32.4932C24.9991 32.4773 25.0859 32.3734 25.1836 32.2598C25.9096 31.4012 26.8728 30.5738 27.0693 30.6504C27.2187 30.7073 27.1361 30.9508 26.8115 31.4062C26.724 31.5356 26.6059 31.7428 26.5596 31.8721C26.3638 32.374 26.4046 33.6468 26.6621 35.0801C26.8579 36.1616 27.0956 37.0986 27.585 38.7285C27.7807 39.3702 28.0849 40.2658 28.1982 40.54C28.2343 40.6228 28.296 40.7786 28.332 40.877C28.3681 40.9754 28.4398 41.1565 28.4912 41.2754C28.5478 41.3995 28.5898 41.5135 28.5898 41.5342C28.5915 41.5993 29.0121 42.4451 29.1406 42.6465C29.3364 42.9363 29.4034 42.9359 29.5322 42.6357C29.6351 42.3825 29.6511 42.3722 29.8262 42.3877C29.9803 42.4032 30.0162 42.4292 30.0625 42.584C30.2222 43.0756 30.5527 42.6774 31.1143 41.3164C31.14 41.2594 31.1913 41.1304 31.2324 41.0322C31.3767 40.6855 31.5771 40.1207 31.5771 40.0586C31.5773 40.0223 31.5983 39.9549 31.624 39.9033C31.6499 39.8563 31.7116 39.696 31.7578 39.5566C31.8042 39.4118 31.861 39.2512 31.8867 39.1943C31.9232 39.0997 32.1387 38.3976 32.252 37.9893C32.2777 37.9013 32.3197 37.7455 32.3506 37.6523C32.428 37.3774 32.7934 35.9035 32.8604 35.5723C32.9685 35.0549 32.9732 35.0236 33.0762 34.3408C33.1947 33.518 33.211 32.3118 33.0977 31.9961C33.0204 31.7684 32.9529 31.6392 32.6387 31.127C32.4326 30.7854 32.4379 30.7903 32.5049 30.6816C32.572 30.5733 32.8243 30.7076 33.2617 31.085C33.916 31.6594 34.4627 32.2599 35.0088 33.0361C35.3847 33.569 35.4158 33.642 35.3232 33.792C35.112 34.1387 35.0963 34.7083 35.2354 37.2285C35.2611 37.7102 35.3019 39.3399 35.3174 40.8506C35.3895 46.4655 35.179 49.2499 34.4062 53.0742C34.2002 54.1144 33.4883 56.5883 33.2256 57.2041C33.1996 57.2617 33.1128 57.4945 33.0254 57.7217C32.8812 58.1148 32.7517 58.4147 32.4736 59.0303C32.2624 59.4908 32.3347 59.4808 32.7158 58.9893C33.7874 57.6127 35.0399 54.8384 35.6787 52.4424C35.895 51.6355 36.0905 50.8649 36.1523 50.5801C36.1833 50.4352 36.2449 50.1707 36.2861 49.9844C36.3274 49.7979 36.425 49.3221 36.4971 48.9238C36.5691 48.5258 36.6519 48.0967 36.6777 47.9668C36.7241 47.7288 36.848 47.0401 36.9355 46.502C37.0386 45.9017 37.1001 45.5549 37.1465 45.3271C37.2907 44.6026 37.435 42.9155 37.502 41.2129C37.5998 38.703 37.5275 32.5238 37.3936 32.2754C37.3008 32.0945 37.1408 32.0061 36.6826 31.8975C36.111 31.7577 35.6164 31.3955 34.4268 30.2471C34.0507 29.8796 33.8955 29.698 33.8955 29.6152C33.8956 29.5019 33.9167 29.4912 34.1787 29.4912C34.5651 29.4912 35.354 29.6213 35.7559 29.7559C36.3479 29.9524 36.6417 30.1176 36.9609 30.4434C37.1309 30.6192 37.3882 30.8631 37.5273 30.9873C37.9652 31.3651 40.1498 33.1088 41.8447 34.4336C42.0972 34.6302 42.5307 34.9721 42.8037 35.1895C44.8383 36.7986 44.8593 36.8196 45.0859 37.2646C45.3485 37.7768 45.4 38.1134 45.3691 39.0654C45.3176 40.3437 45.1321 42.1552 44.7715 44.8203C44.6993 45.3431 44.4829 46.5999 44.3799 47.0605C44.3335 47.2572 44.2767 47.5269 44.251 47.6562C44.2251 47.786 44.1222 48.2044 44.0244 48.5869C43.8647 49.213 43.813 49.4101 43.6328 50.0205C43.6019 50.1137 43.5609 50.2694 43.5352 50.3574C43.4269 50.7456 43.066 51.8995 42.9424 52.2617C42.8651 52.4739 42.7365 52.8466 42.6592 53.0898C42.5767 53.3331 42.4323 53.7265 42.3447 53.9697C42.1649 54.4548 42.0873 54.6979 42.0869 54.7607C42.0869 54.8487 42.2882 54.6007 42.5664 54.166C43.4937 52.717 44.4007 50.709 45.4619 47.7334C45.5856 47.3918 45.7812 46.8534 45.8945 46.543C46.0903 46.01 46.379 45.0014 46.5078 44.4219C46.5387 44.277 46.6004 44.0125 46.6416 43.8262C46.6828 43.6399 46.7445 43.3396 46.7754 43.1533C46.8063 42.9671 46.858 42.6983 46.8838 42.5586C47.162 41.1356 47.5995 37.017 47.5996 35.8779C47.5996 35.5106 47.5794 35.3805 47.5176 35.3184C47.4146 35.2149 47.409 35.215 47.2188 35.3545C46.7191 35.727 46.4713 35.7795 46.0645 35.583C45.0754 35.1018 41.5157 32.4622 39.7949 30.9355C39.7125 30.8631 39.4443 30.6299 39.2021 30.4229C38.5067 29.8329 37.8829 29.2017 37.5635 28.7773C37.0845 28.141 36.8629 28.0731 35.8018 28.249C35.3277 28.3266 33.7467 28.2914 33.499 28.1982C33.3754 28.1517 33.3291 28.1046 33.3291 28.0166C33.3292 27.6596 35.1833 27.2254 36.4609 27.2822C37.0945 27.3081 37.3733 27.3694 38.8154 27.7988C40.361 28.2646 41.3196 28.5965 42.0254 28.9277C42.26 29.0404 42.4644 29.1272 42.4834 29.1289C42.5451 29.1289 43.1661 29.6032 43.1689 29.6465C43.1689 29.75 43.4316 29.7601 43.6943 29.667C44.3022 29.4548 45.1679 28.7464 45.7861 27.9443C46.0283 27.6338 46.0337 27.6125 45.9307 27.2451C45.8895 27.1002 45.8324 26.8623 45.8066 26.7227C45.7035 26.2201 45.0956 23.7208 44.7969 22.6084C44.4363 21.2475 44.029 19.799 43.9414 19.5557C43.7508 19.0019 43.6171 18.6339 43.5811 18.5459C43.56 18.488 43.4421 18.2042 43.3291 17.9102C42.7985 16.5957 41.8655 14.9286 40.7939 13.3916C40.1862 12.5225 39.9746 12.2643 39.9746 12.4092C39.9749 12.4665 40.0319 12.6365 40.0986 12.7861C40.1656 12.9362 40.32 13.3043 40.4385 13.6045C40.5569 13.9044 40.6855 14.2146 40.7217 14.3027C40.8556 14.6029 41.4639 16.1195 41.6133 16.5283C42.4839 18.8517 42.6483 19.3747 42.875 20.5391C43.215 22.2676 43.5293 25.1915 43.5293 26.6611C43.5293 27.183 43.5196 27.225 43.4014 27.3438C43.3035 27.4473 43.2256 27.4736 43.0195 27.4736C42.7721 27.4736 42.1124 27.3434 41.623 27.1934C41.4943 27.1571 41.2888 27.0958 41.1602 27.0596C41.0314 27.0234 40.8251 26.9613 40.6963 26.9199C40.5675 26.8785 40.0571 26.7385 39.5625 26.6143C38.0176 26.2159 37.286 25.9884 36.8018 25.7607C36.3332 25.5383 35.8899 25.4392 35.5654 25.4805C35.2821 25.5167 35.0704 25.6105 34.5449 25.9365C34.2152 26.1383 33.5764 26.4232 33.3291 26.4697C33.1282 26.5111 33.128 26.438 33.3135 26.0654C33.463 25.7704 33.968 25.2429 34.2256 25.1084C34.4677 24.9842 34.993 24.9687 35.9717 25.0566C36.456 25.1032 37.1725 25.1652 37.5537 25.1963C38.8671 25.3049 39.3309 25.3824 39.6709 25.5635C39.9799 25.729 39.98 25.7291 40.1035 25.6309C40.1705 25.5791 40.4902 25.3304 40.8096 25.082C41.1289 24.8388 41.4586 24.5645 41.541 24.4766C41.7109 24.3008 41.7112 24.3159 41.5 23.3174C41.2579 22.1842 41.0572 21.4026 40.6914 20.1504C40.3411 18.9601 39.5524 16.7352 39.2227 15.9951C39.156 15.8458 39.1001 15.7117 39.0996 15.7002C39.0996 15.6536 38.5328 14.4275 38.2236 13.8115C37.7085 12.7765 37.1416 11.8607 37.1416 12.0625Z" fill="#43861E"/>
<path d="M108.679 31.9062C108.546 30.6657 107.988 29.6998 107.003 29.0085C106.027 28.3172 104.759 27.9716 103.196 27.9716C102.098 27.9716 101.155 28.1373 100.369 28.4688C99.5833 28.8002 98.982 29.25 98.5653 29.8182C98.1487 30.3864 97.9356 31.035 97.9261 31.7642C97.9261 32.3703 98.0634 32.8958 98.3381 33.3409C98.6222 33.786 99.0057 34.1648 99.4886 34.4773C99.9716 34.7803 100.507 35.036 101.094 35.2443C101.681 35.4527 102.273 35.6278 102.869 35.7699L105.597 36.4517C106.695 36.7074 107.751 37.053 108.764 37.4886C109.787 37.9242 110.701 38.4735 111.506 39.1364C112.32 39.7992 112.964 40.5994 113.438 41.5369C113.911 42.4744 114.148 43.5729 114.148 44.8324C114.148 46.5369 113.712 48.0379 112.841 49.3352C111.97 50.6231 110.71 51.6316 109.062 52.3608C107.424 53.0805 105.44 53.4403 103.111 53.4403C100.848 53.4403 98.8826 53.09 97.2159 52.3892C95.5587 51.6884 94.2614 50.6657 93.3239 49.321C92.3958 47.9763 91.8939 46.3381 91.8182 44.4062H97.0028C97.0786 45.4195 97.3911 46.2623 97.9403 46.9347C98.4896 47.607 99.2045 48.1089 100.085 48.4403C100.975 48.7718 101.97 48.9375 103.068 48.9375C104.214 48.9375 105.218 48.767 106.08 48.4261C106.951 48.0758 107.633 47.5928 108.125 46.9773C108.617 46.3523 108.868 45.6231 108.878 44.7898C108.868 44.0322 108.646 43.4072 108.21 42.9148C107.775 42.4129 107.164 41.9962 106.378 41.6648C105.601 41.3239 104.692 41.0208 103.651 40.7557L100.341 39.9034C97.9451 39.2879 96.0511 38.3551 94.6591 37.1051C93.2765 35.8456 92.5852 34.1742 92.5852 32.0909C92.5852 30.3769 93.0492 28.8759 93.9773 27.5881C94.9148 26.3002 96.1884 25.3011 97.7983 24.5909C99.4081 23.8712 101.231 23.5114 103.267 23.5114C105.331 23.5114 107.14 23.8712 108.693 24.5909C110.256 25.3011 111.482 26.2907 112.372 27.5597C113.262 28.8191 113.722 30.268 113.75 31.9062H108.679ZM124.897 53.4403C123.514 53.4403 122.269 53.1941 121.161 52.7017C120.063 52.1998 119.192 51.4612 118.548 50.4858C117.913 49.5104 117.596 48.3078 117.596 46.8778C117.596 45.6468 117.823 44.6288 118.278 43.8239C118.732 43.0189 119.353 42.375 120.138 41.892C120.924 41.4091 121.81 41.0445 122.795 40.7983C123.789 40.5426 124.817 40.358 125.877 40.2443C127.156 40.1117 128.192 39.9934 128.988 39.8892C129.783 39.7756 130.361 39.6051 130.721 39.3778C131.09 39.1411 131.275 38.7765 131.275 38.2841V38.1989C131.275 37.1288 130.958 36.3002 130.323 35.7131C129.689 35.1259 128.775 34.8324 127.582 34.8324C126.322 34.8324 125.323 35.107 124.585 35.6562C123.855 36.2055 123.363 36.8542 123.107 37.6023L118.306 36.9205C118.685 35.5947 119.31 34.4867 120.181 33.5966C121.052 32.697 122.118 32.0246 123.377 31.5795C124.637 31.125 126.029 30.8977 127.553 30.8977C128.604 30.8977 129.651 31.0208 130.692 31.267C131.734 31.5133 132.686 31.9205 133.548 32.4886C134.409 33.0473 135.101 33.8097 135.621 34.7756C136.152 35.7415 136.417 36.9489 136.417 38.3977V53H131.474V50.0028H131.303C130.991 50.6089 130.55 51.1771 129.982 51.7074C129.424 52.2282 128.718 52.6496 127.866 52.9716C127.023 53.2841 126.033 53.4403 124.897 53.4403ZM126.232 49.6619C127.264 49.6619 128.159 49.4583 128.917 49.0511C129.674 48.6345 130.257 48.0852 130.664 47.4034C131.081 46.7216 131.289 45.9782 131.289 45.1733V42.6023C131.128 42.7348 130.853 42.858 130.465 42.9716C130.086 43.0852 129.66 43.1847 129.187 43.2699C128.713 43.3551 128.245 43.4309 127.781 43.4972C127.317 43.5634 126.914 43.6203 126.573 43.6676C125.806 43.7718 125.12 43.9422 124.513 44.179C123.907 44.4157 123.429 44.7472 123.079 45.1733C122.728 45.59 122.553 46.1297 122.553 46.7926C122.553 47.7396 122.899 48.4545 123.59 48.9375C124.281 49.4205 125.162 49.6619 126.232 49.6619ZM152.638 31.1818V35.1591H139.741V31.1818H152.638ZM142.965 53V29.1222C142.965 27.6544 143.268 26.4328 143.874 25.4574C144.49 24.482 145.314 23.7528 146.346 23.2699C147.378 22.7869 148.524 22.5455 149.783 22.5455C150.674 22.5455 151.464 22.6165 152.156 22.7585C152.847 22.9006 153.358 23.0284 153.69 23.142L152.667 27.1193C152.449 27.053 152.174 26.9867 151.843 26.9205C151.512 26.8447 151.142 26.8068 150.735 26.8068C149.779 26.8068 149.102 27.0388 148.704 27.5028C148.316 27.9574 148.121 28.6108 148.121 29.4631V53H142.965ZM165.504 53.4261C163.317 53.4261 161.428 52.9716 159.837 52.0625C158.255 51.1439 157.038 49.8466 156.186 48.1705C155.334 46.4848 154.908 44.5009 154.908 42.2188C154.908 39.9744 155.334 38.0047 156.186 36.3097C157.048 34.6051 158.25 33.2794 159.794 32.3324C161.338 31.3759 163.151 30.8977 165.234 30.8977C166.579 30.8977 167.848 31.1155 169.041 31.5511C170.244 31.9773 171.304 32.6402 172.223 33.5398C173.151 34.4394 173.88 35.5852 174.411 36.9773C174.941 38.3598 175.206 40.0076 175.206 41.9205V43.4972H157.322V40.0312H170.277C170.268 39.0464 170.054 38.1705 169.638 37.4034C169.221 36.6269 168.639 36.0161 167.891 35.571C167.152 35.1259 166.29 34.9034 165.305 34.9034C164.254 34.9034 163.331 35.1591 162.536 35.6705C161.74 36.1723 161.12 36.8352 160.675 37.6591C160.239 38.4735 160.017 39.3684 160.007 40.3438V43.3693C160.007 44.6383 160.239 45.7273 160.703 46.6364C161.167 47.536 161.816 48.2273 162.649 48.7102C163.482 49.1837 164.458 49.4205 165.575 49.4205C166.323 49.4205 167 49.3163 167.607 49.108C168.213 48.8902 168.738 48.5729 169.183 48.1562C169.628 47.7396 169.964 47.2235 170.192 46.608L174.993 47.1477C174.69 48.4167 174.112 49.5246 173.26 50.4716C172.417 51.4091 171.338 52.1383 170.021 52.6591C168.705 53.1705 167.199 53.4261 165.504 53.4261ZM183.874 53L175.664 23.9091H181.332L186.573 45.2869H186.843L192.44 23.9091H197.596L203.207 45.3011H203.462L208.704 23.9091H214.371L206.161 53H200.962L195.138 32.5881H194.911L189.073 53H183.874ZM225.231 53.4261C223.043 53.4261 221.154 52.9716 219.563 52.0625C217.982 51.1439 216.765 49.8466 215.913 48.1705C215.06 46.4848 214.634 44.5009 214.634 42.2188C214.634 39.9744 215.06 38.0047 215.913 36.3097C216.774 34.6051 217.977 33.2794 219.521 32.3324C221.064 31.3759 222.878 30.8977 224.961 30.8977C226.306 30.8977 227.575 31.1155 228.768 31.5511C229.97 31.9773 231.031 32.6402 231.95 33.5398C232.878 34.4394 233.607 35.5852 234.137 36.9773C234.667 38.3598 234.933 40.0076 234.933 41.9205V43.4972H217.049V40.0312H230.004C229.994 39.0464 229.781 38.1705 229.364 37.4034C228.948 36.6269 228.365 36.0161 227.617 35.571C226.879 35.1259 226.017 34.9034 225.032 34.9034C223.981 34.9034 223.058 35.1591 222.262 35.6705C221.467 36.1723 220.846 36.8352 220.401 37.6591C219.966 38.4735 219.743 39.3684 219.734 40.3438V43.3693C219.734 44.6383 219.966 45.7273 220.43 46.6364C220.894 47.536 221.542 48.2273 222.376 48.7102C223.209 49.1837 224.184 49.4205 225.302 49.4205C226.05 49.4205 226.727 49.3163 227.333 49.108C227.939 48.8902 228.465 48.5729 228.91 48.1562C229.355 47.7396 229.691 47.2235 229.918 46.608L234.719 47.1477C234.416 48.4167 233.839 49.5246 232.987 50.4716C232.144 51.4091 231.064 52.1383 229.748 52.6591C228.432 53.1705 226.926 53.4261 225.231 53.4261ZM239.51 53V23.9091H244.652V34.7898H244.865C245.13 34.2595 245.504 33.696 245.987 33.0994C246.47 32.4934 247.124 31.9773 247.947 31.5511C248.771 31.1155 249.822 30.8977 251.101 30.8977C252.786 30.8977 254.306 31.3286 255.661 32.1903C257.024 33.0426 258.104 34.3068 258.899 35.983C259.704 37.6496 260.107 39.6951 260.107 42.1193C260.107 44.5152 259.714 46.5511 258.928 48.2273C258.142 49.9034 257.071 51.1818 255.717 52.0625C254.363 52.9432 252.829 53.3835 251.115 53.3835C249.865 53.3835 248.828 53.1752 248.004 52.7585C247.18 52.3419 246.518 51.84 246.016 51.2528C245.523 50.6562 245.14 50.0928 244.865 49.5625H244.567V53H239.51ZM244.553 42.0909C244.553 43.5019 244.751 44.7377 245.149 45.7983C245.556 46.8589 246.139 47.6875 246.896 48.2841C247.663 48.8712 248.591 49.1648 249.68 49.1648C250.817 49.1648 251.768 48.8617 252.536 48.2557C253.303 47.6402 253.88 46.8021 254.268 45.7415C254.666 44.6714 254.865 43.4545 254.865 42.0909C254.865 40.7367 254.671 39.5341 254.283 38.483C253.894 37.4318 253.317 36.608 252.55 36.0114C251.783 35.4148 250.826 35.1165 249.68 35.1165C248.582 35.1165 247.649 35.4053 246.882 35.983C246.115 36.5606 245.533 37.3703 245.135 38.4119C244.747 39.4536 244.553 40.6799 244.553 42.0909Z" fill="#161616"/>
</svg>
