<svg width="16" height="20" viewBox="0 0 16 20" fill="none" xmlns="http://www.w3.org/2000/svg">
<path d="M8.00522 0H8H7.99478C3.57822 0.00625001 0 3.88043 0 8.65891C0 13.4374 5.21573 19.332 7.99478 19.9964V20C7.99478 20 7.99826 19.9982 8 19.9982C8.00174 19.9982 8.00348 20 8.00522 20V19.9964C10.7843 19.3312 16 13.4349 16 8.65891C16 3.88226 12.4218 0.00548567 8.00522 0ZM8 11.0785C6.72 11.0785 5.68175 10.0125 5.68175 8.69822C5.68175 7.38397 6.72002 6.3179 8 6.3179C9.27998 6.3179 10.3183 7.38397 10.3183 8.69822C10.3183 10.0125 9.27998 11.0785 8 11.0785Z" fill="#43861E"/>
</svg>
