<svg width="19" height="20" viewBox="0 0 19 20" fill="none" xmlns="http://www.w3.org/2000/svg">
<path d="M18.8659 13.1225C19.0139 13.3089 19.0354 13.5586 18.9502 13.7863C18.6112 14.6163 18.1457 15.4049 17.5744 16.11C17.4264 16.2964 17.1933 16.3799 16.961 16.3588L15.0775 16.1513C13.8497 16.0265 12.6651 16.6911 12.1564 17.8112L11.3941 19.5125C11.3098 19.72 11.0981 19.8651 10.865 19.9064C9.95469 20.0312 9.02373 20.0312 8.11343 19.9064C7.88027 19.8651 7.69011 19.72 7.58428 19.5125L6.82197 17.8112C6.31433 16.7114 5.15021 16.0476 3.92247 16.1724L2.03905 16.3799C1.80589 16.401 1.57357 16.3175 1.42558 16.1311C0.854271 15.4259 0.388792 14.6373 0.049799 13.8074C-0.0345325 13.5999 -0.0138626 13.3511 0.134132 13.1436L1.25609 11.6498C1.97539 10.6748 1.97539 9.34626 1.25609 8.37127L0.134132 6.8775C-0.0138626 6.69109 -0.0353584 6.44144 0.049799 6.2137C0.388792 5.38374 0.854271 4.59511 1.42558 3.89002C1.57357 3.7036 1.80673 3.62012 2.03905 3.6412L3.92247 3.84869C5.15025 3.9735 6.33495 3.30888 6.84356 2.18877L7.60587 0.487513C7.6902 0.280022 7.90185 0.134945 8.13502 0.0936133C9.04532 -0.0312044 9.97627 -0.0312044 10.8866 0.0936133C11.1197 0.134949 11.3099 0.280031 11.4157 0.487513L12.178 2.18877C12.6857 3.28863 13.8498 3.97351 15.0775 3.82761L16.961 3.62012C17.1941 3.59904 17.4264 3.68252 17.5744 3.86894C18.1457 4.57407 18.6112 5.3627 18.9502 6.19262C19.0345 6.40011 19.0139 6.64893 18.8659 6.85642L17.7439 8.35018C17.0246 9.32522 17.0246 10.6537 17.7439 11.6287L18.8659 13.1225ZM9.51079 7.12562C7.90184 7.12562 6.58969 8.41189 6.58969 9.98919C6.58969 11.5665 7.9018 12.8528 9.51079 12.8528C11.1198 12.8528 12.4319 11.5665 12.4319 9.98919C12.4319 8.41189 11.1198 7.12562 9.51079 7.12562Z" fill="#43861E"/>
</svg>
